<svg xmlns="http://www.w3.org/2000/svg" width="309" height="299" viewBox="0 0 309 299" fill="none">
<path xmlns="http://www.w3.org/2000/svg" d="M158.452 69.6718L153.966 46.2757L139.652 21.5799L124.697 7.06565L100.983 1H71.7147L47.5734 10.965L27.064 30.0284L18.3048 52.3414V69.6718V73.1379V89.8184L31.1547 109.689M158.452 69.6718V95.4508M158.452 69.6718L162.939 46.2757L167.852 41.2932L175.543 26.5624L188.148 15.5142L209.299 7.06565L228.526 1L254.376 7.06565L272.749 15.5142L287.491 36.0941L298.173 61.8731L295.395 89.8184L287.491 112.348L268.263 129.678L245.19 142.026H221.903L203.103 138.127L188.148 129.678L171.698 116.247L162.939 101.733L158.452 95.4508M158.452 95.4508L145.207 116.247L130.252 129.678L109.956 138.127L83.8921 142.026L56.3326 133.578L35.396 116.247L31.1547 109.689M287.491 116.247L298.173 138.127L305.223 155.457L308 174.521V197.267L298.173 218.063L287.491 232.144L283.645 237.56M283.645 237.56L291.55 247.742L295.395 259.007V279.586L283.645 293.017L277.022 298L265.058 293.017H254.376H245.19L236.858 283.486H221.903L213.144 279.586V269.296M283.645 237.56L277.022 232.144L272.749 230.52L265.058 227.595L245.19 224.779L230.662 232.144L218.699 243.842L213.144 259.007V269.296M213.144 269.296L203.103 265.072L185.585 267.239H167.852L130.252 269.296L109.956 267.239L102.051 265.072M102.051 265.072L95.0014 243.842L83.8921 232.144L68.9374 224.779H52.4871L32.6187 230.52L27.064 237.181M102.051 265.072V269.296V276.77L95.0014 283.486L77.9102 279.586L68.9374 293.017H52.4871H42.0188H32.6187L21.5094 279.586L18.3048 259.007L21.5094 243.842L27.064 237.181M108.247 222.613L158.452 250.558L199.898 224.779M27.064 237.181L12.1093 222.613L5.05915 204.416L1 183.836V170.621L7.40919 145.276L12.1093 133.578L21.5094 119.063L31.1547 109.689M120.211 53.8578H115.084L109.956 55.1575L105.47 58.8403L102.265 63.3895L100.342 67.2888V72.0547V77.4705L102.265 80.9365L104.188 83.9694L105.47 86.5689L109.956 88.7352L115.084 91.1182L121.92 91.9847L128.329 89.6017L131.747 86.5689L135.379 82.453L137.729 78.337V73.7877L136.661 67.2888L135.379 63.3895L132.602 60.7899L130.252 57.7571L125.979 55.1575H123.843L120.211 53.8578ZM194.557 55.1575L191.78 57.3238L189.43 59.2735L186.439 62.7396L184.303 66.4223L183.662 69.6718V73.3545V78.5536L184.944 81.5864L186.439 84.8359L189.43 87.6521L191.78 89.8184L195.198 91.5514L198.83 92.6346H202.889H206.735H209.299L212.93 90.9015L215.494 88.9519L217.203 87.6521L219.553 84.8359L221.049 80.9365L221.69 77.2538L221.476 70.105L221.049 67.2888L218.699 62.7396L215.494 59.2735L212.93 57.3238L210.367 55.8074L207.803 54.291H197.548L194.557 55.1575ZM43.7279 157.624L37.9596 159.14L34.3278 161.74L30.6959 164.556L28.5595 167.589L26.4231 171.705C26.2095 172.571 25.6967 174.391 25.3549 174.737C25.0131 175.084 24.6428 177.193 24.5003 178.203V181.67V186.435V190.118L25.3549 192.501L27.7049 195.101L29.8413 198.133L33.2596 201.383L35.6096 202.683L38.8142 204.199L42.2324 205.716L46.7189 206.365L50.9916 205.716H55.0508L59.9645 204.199L64.6646 201.383L67.2283 198.133L70.0056 193.584L70.6465 190.118L71.7147 185.352V179.287L70.6465 174.737L67.8692 168.888L64.6646 166.072L60.6054 162.823L56.3326 160.873L52.2735 159.14L49.0689 157.624H43.7279ZM16.382 160.007L14.6729 159.14L12.7502 160.007L11.4683 160.873V162.823L12.1093 164.556L13.3911 165.422H15.5275L16.382 164.556L17.4502 162.823V161.74L16.382 160.007ZM296.463 163.256H294.113L292.618 164.556V166.072V168.022L293.473 168.888L294.541 169.755H296.463H297.959L298.6 168.888L299.241 166.939L298.6 164.556L297.318 163.256H296.463ZM277.236 168.022L274.886 166.072L271.468 164.556L267.195 163.256H261.64L256.513 164.556L253.095 166.072C251.955 166.433 249.591 167.329 249.249 168.022C248.907 168.715 246.543 171.632 245.404 173.004L242.413 178.203L241.772 182.319V187.519V193.584L243.267 196.184L245.404 199.65L247.967 203.333L250.958 205.932L254.804 208.098L258.436 210.048H263.349L269.545 209.182L274.031 208.098L278.945 205.932L282.363 203.333L284.286 199L286.422 194.667V187.519V182.319L285.141 179.07L281.936 173.438L279.372 169.755L277.236 168.022Z" stroke="black"/>
</svg>